<svg enable-background="new 0 0 512 512" viewBox="0 0 512 512" xmlns="http://www.w3.org/2000/svg"><circle cx="256" cy="256" fill="#e16b5a" r="256"/><path d="m489.264 310.368c-.276-.684-.532-1.372-.836-2.052-.268-.68-.524-1.364-.82-2.044-.276-.688-.54-1.384-.836-2.076-.264-.664-.516-1.332-.804-1.992-.284-.712-.556-1.416-.86-2.12-.264-.664-.516-1.336-.8-1.992-.28-.704-.544-1.412-.856-2.1-.26-.664-.508-1.328-.796-1.984-.28-.704-.548-1.416-.856-2.108-.264-.664-.512-1.336-.804-1.992-.276-.708-.544-1.412-.852-2.1-.26-.664-.508-1.328-.8-1.984-.28-.704-.54-1.408-.848-2.092-.268-.684-.528-1.372-.824-2.044-.272-.684-.528-1.372-.828-2.052-.272-.68-.528-1.368-.828-2.048-.272-.688-.532-1.384-.832-2.064-.268-.68-.524-1.36-.82-2.032-.268-.68-.524-1.364-.824-2.04-.272-.696-.536-1.392-.84-2.084-.268-.676-.516-1.352-.808-2.02-.28-.692-.54-1.384-.836-2.072-.272-.688-.532-1.376-.828-2.056-.272-.684-.532-1.376-.836-2.056-.272-.68-.524-1.36-.82-2.032-.272-.696-.532-1.392-.836-2.072-.264-.672-.516-1.352-.812-2.016-.272-.7-.54-1.4-.844-2.084-.268-.68-.516-1.36-.82-2.024-.272-.688-.532-1.384-.828-2.068-.268-.676-.524-1.352-.82-2.02-.276-.708-.54-1.416-.852-2.108-.264-.664-.508-1.328-.804-1.984-.276-.704-.54-1.412-.852-2.1-.26-.664-.508-1.328-.796-1.988-.28-.704-.548-1.412-.86-2.104-.26-.664-.508-1.336-.8-1.992-.28-.708-.544-1.416-.856-2.104-.264-.668-.508-1.34-.804-2.004-.276-.696-.54-1.392-.84-2.08-.272-.684-.528-1.368-.824-2.044-.272-.684-.532-1.372-.828-2.048-.272-.684-.528-1.372-.824-2.044-.276-.688-.532-1.384-.832-2.068-.272-.68-.524-1.364-.824-2.036-.276-.692-.536-1.392-.836-2.072-.268-.68-.52-1.36-.82-2.032-.276-.692-.536-1.388-.836-2.072-.268-.676-.52-1.36-.82-2.032-.268-.688-.528-1.376-.832-2.056-.272-.68-.524-1.36-.82-2.032-.28-.7-.54-1.4-.844-2.084-.264-.672-.516-1.344-.812-2.008-.272-.696-.532-1.384-.828-2.072-.28-.688-.536-1.384-.836-2.068-.272-.684-.524-1.364-.82-2.036-.272-.68-.532-1.368-.828-2.048-.276-.688-.532-1.376-.836-2.056-.272-.684-.524-1.376-.828-2.056-.272-.68-.524-1.36-.82-2.032-.28-.7-.54-1.404-.852-2.088-.26-.668-.508-1.34-.804-2.004-.28-.704-.54-1.408-.852-2.092-.26-.664-.508-1.34-.804-2-.276-.696-.54-1.396-.844-2.084-.264-.668-.508-1.34-.804-2.004-.28-.712-.548-1.416-.86-2.116-.264-.664-.508-1.332-.804-1.996-.276-.696-.54-1.396-.844-2.084-.268-.68-.524-1.36-.82-2.032-.276-.692-.54-1.388-.836-2.076-.268-.676-.524-1.356-.82-2.024-.272-.684-.524-1.372-.824-2.044-.268-.688-.528-1.384-.832-2.068-.272-.688-.532-1.38-.832-2.06-.268-.68-.524-1.368-.824-2.04-.272-.688-.532-1.384-.836-2.068-.264-.676-.516-1.352-.812-2.016-.28-.704-.544-1.412-.848-2.096-.26-.656-.504-1.32-.792-1.968-.28-.712-.552-1.424-.864-2.128-.26-.668-.512-1.336-.8-1.992-.28-.704-.548-1.412-.856-2.104-.26-.664-.512-1.336-.8-1.992-.28-.704-.548-1.412-.856-2.1-.26-.668-.512-1.336-.8-1.996-.28-.708-.548-1.412-.852-2.1-.264-.656-.508-1.316-.796-1.964-.276-.708-.54-1.416-.852-2.108-.268-.68-.524-1.368-.82-2.04-4.82-12.056-13.648-23.252-27.304-33.188-14.32-10.416-39.548-5.196-68.572 10.968-4.9 10.12-10.168 21.532-14.884 32.524 0-.56 0-1.084 0-1.656-1.336.892-2.668 1.828-4 2.752 0-1.548 0-3.152 0-4.792 0-.688 0-1.344 0-2.052 0-.664 0-1.376 0-2.048 0-.68 0-1.36 0-2.056 0-.688 0-1.344 0-2.048-1.336.888-2.668 1.824-4 2.752 0-1.564 0-3.156 0-4.796 0-.68 0-1.36 0-2.056 0-.688 0-1.344 0-2.048-34.008 23.928-70.468 60.008-99.584 101.752-4.992 18.06-6.74 36.416-4.416 48.04-5.112-1.704-10.94-7.772-16.268-15.092-29.74 25.4-24.58 58.608-33.564 105.54l-46.448 37.6 33.08 82.124c37.48 21.512 80.884 33.876 127.2 33.876 114.288 0 211.056-74.916 243.96-178.3-5.396-11.78-10.6-23.108-10.696-23.332z" fill="#cc6152"/><path d="m122.092 396 55.028-45.856-10.24-12.288-69.776 58.144z" fill="#b3b3b3"/><path d="m336 244c16.832-16.832 39.3-27.928 55.548-23.9 33.5-46.336 41.776-93.976-4.084-127.336-14.324-10.416-39.548-5.196-68.572 10.968-7.976 16.464-16.92 36.348-22.892 52.268 0-8.528 0-21.176 0-37.78-34.008 23.924-70.468 60.008-99.584 101.748-4.992 18.06-6.74 36.416-4.416 48.04-5.112-1.704-10.94-7.768-16.268-15.088-31.732 27.08-23.732 63.08-35.572 115.144 39.84-8.064 95.84 3.936 119.664-36.844-3.032-.564-6.136-1.532-7.824-3.22 7.908-3.952 17.764-5.952 26.688-7.928 35.728-22.244 70.472-50.172 96.488-79.596-15.176-8.476-34.224 6-39.176 3.524z" fill="#e6e6e6"/><path d="m140.16 368.064c11.84-52.064 3.84-88.064 35.572-115.156 5.328 7.32 11.156 13.392 16.268 15.092-2.324-11.616-.576-29.98 4.416-48.04 29.116-41.74 65.576-77.816 99.584-101.748v37.784c5.972-15.916 14.916-35.804 22.884-52.26 29.024-16.164 54.252-21.384 68.572-10.968-11.456 55.232-167.456 215.232-247.296 275.296z" fill="#f5f5f5"/></svg>